<svg xmlns="http://www.w3.org/2000/svg" viewBox="0 0 551.54 162.83"><defs><style>.cls-1{fill:#3c3c3b;}.cls-2{fill:#259bd6;}.cls-3{fill:#fff;}</style></defs><g id="Layer_2" data-name="Layer 2"><g id="Layer_1-2" data-name="Layer 1"><polygon class="cls-1" points="160.74 78.55 152.04 87.46 142.82 78.55 133.43 88.28 143.5 98 152.09 88.99 161.42 98 170.81 88.28 160.74 78.55"/><path class="cls-1" d="M104.29,72.3h66.52V25.7H156.16v33H104.23V0H89.55l.09,74.86a6.89,6.89,0,0,1-1.86,5.48q-2,1.89-6,1.89c-2.66,0-4.65-.63-6-1.89a7.68,7.68,0,0,1-2.09-5.48l0-33.28H59.05l0,32.87a27.41,27.41,0,0,0,1.29,7.48,16.88,16.88,0,0,0,3.81,6.45,18.49,18.49,0,0,0,7.07,4.56,31.36,31.36,0,0,0,11.07,1.69,30.83,30.83,0,0,0,11-1.69,17.23,17.23,0,0,0,6.85-4.56,15.71,15.71,0,0,0,3.46-6.45,25.39,25.39,0,0,0,.82-7.48Z"/><path class="cls-1" d="M322.35,58.68a117.69,117.69,0,0,0-.64-15.11,25.26,25.26,0,0,0-3.17-9.93,14.85,14.85,0,0,0-6.86-5.94,28.81,28.81,0,0,0-11.64-2H272.17V39.33h28.34a6.94,6.94,0,0,1,4.66,1.43,8.41,8.41,0,0,1,2.5,3.94,22.92,22.92,0,0,1,.92,6.09c.09,2.4,0,2.81,0,7.89H226.84V44.19q0-8.64-3.78-13.4Q219,25.71,209.57,25.7h-14q-7.44,0-10.91,4.1t-3.5,11l.05,31.51h30.07l0,1.8a18,18,0,0,1-.45,3.61,4.86,4.86,0,0,1-1.51,2.52,7.41,7.41,0,0,1-3.06,1.47,21.23,21.23,0,0,1-5.1.5h-19.8l0,11.91h22.3A48.92,48.92,0,0,0,215,93a15,15,0,0,0,7-3.55,13.6,13.6,0,0,0,3.61-6.29,41.28,41.28,0,0,0,1.2-9.4V72.3H362.38V25.7H347.46v33ZM198.88,37.51h7c2.11,0,3.57.57,4.36,1.7a6.88,6.88,0,0,1,1.11,4.32l0,15.15H194.47v-17Q194.5,37.52,198.88,37.51Z"/><polygon class="cls-1" points="343.66 10.45 352.99 19.46 362.38 9.73 352.31 0 343.61 8.91 334.39 0 325 9.73 335.07 19.46 343.66 10.45"/><polygon class="cls-1" points="0 104.15 18.13 104.15 18.19 162.83 32.94 162.83 32.94 104.15 51.1 104.15 51.1 90.53 0 90.53 0 104.15"/><path class="cls-1" d="M96,117.26A16,16,0,0,0,89.14,114a47.38,47.38,0,0,0-10.74-1H58.34v11.87H78.21a35.47,35.47,0,0,1,4.77.26,5.57,5.57,0,0,1,2.8,1.08,3.91,3.91,0,0,1,1.31,2.35,21.48,21.48,0,0,1,.3,4.1H73.87q-9,0-13.68,4.25t-4.4,11.83a39.15,39.15,0,0,0,.61,5.78,12,12,0,0,0,1.75,4.46,8.21,8.21,0,0,0,3.37,2.86,13,13,0,0,0,5.62,1h34V132a33.41,33.41,0,0,0-1.34-8.86A12.63,12.63,0,0,0,96,117.26Zm-8.79,34.81H74a5,5,0,0,1-3.1-.76,3.6,3.6,0,0,1-1-2.82,10.14,10.14,0,0,1,.13-2.05,4,4,0,0,1,.76-1.79,4.34,4.34,0,0,1,1.74-1.28,7.58,7.58,0,0,1,3-.51H87.23Z"/><path class="cls-1" d="M153.21,117.2a9.45,9.45,0,0,0-3.65-3.22,11.94,11.94,0,0,0-5.41-1.13l-18.33.11,0-22.43H111.4l0,72.3h14.75V127.5l11.67-.31c2.39,0,3.62,1.19,3.71,3.58v32.06h14.67v-34a32.61,32.61,0,0,0-.84-6.56A15.84,15.84,0,0,0,153.21,117.2Z"/><path class="cls-1" d="M221.32,149.92H208.63l.14-37H193.93l0,37h-8.91q-3.78,0-3.71-3.58V113H166.64v34q0,7.28,2.81,11.58t9.21,4.3h57V113H221.32Z"/><path class="cls-1" d="M274.41,113H261.3q-8.81,0-12.63,4.76t-3.52,13.67v12.39a39.59,39.59,0,0,0,1.1,8.81,12.81,12.81,0,0,0,3.38,5.89,14.07,14.07,0,0,0,6.57,3.32,45.4,45.4,0,0,0,10.64,1h20.91V151.67H269.21a19.84,19.84,0,0,1-4.78-.47,6.71,6.71,0,0,1-2.86-1.38,4.38,4.38,0,0,1-1.41-2.35,16.69,16.69,0,0,1-.43-3.38l0-.92h28.16l.05-16.08q0-6.45-3.27-10.29C282.46,114.24,279.06,113,274.41,113Zm1,20.58H259.67l0-3.89a6.49,6.49,0,0,1,1-4.05c.75-1.06,2.11-1.58,4.09-1.58h6.56c2.73,0,4.1,1.29,4.13,3.89Z"/><path class="cls-1" d="M324.05,113H310.94q-8.81,0-12.63,4.76t-3.52,13.67v12.39a39,39,0,0,0,1.1,8.81,12.72,12.72,0,0,0,3.38,5.89,14.07,14.07,0,0,0,6.57,3.32,45.37,45.37,0,0,0,10.63,1h20.92V151.67H318.85a19.84,19.84,0,0,1-4.78-.47,6.71,6.71,0,0,1-2.86-1.38,4.45,4.45,0,0,1-1.42-2.35,16.05,16.05,0,0,1-.42-3.38l0-.92h28.21V127.09q0-6.45-3.28-10.29T324.05,113Zm1,20.58H309.31l0-3.89a6.49,6.49,0,0,1,1-4.05c.75-1.06,2.11-1.58,4.09-1.58H321c2.73,0,4.1,1.29,4.13,3.89Z"/><rect class="cls-1" x="347.46" y="90.53" width="14.92" height="72.3"/><rect class="cls-2" x="388.71" width="162.83" height="162.83" transform="translate(551.54 -388.71) rotate(90)"/><polygon class="cls-3" points="525.16 92.85 519.24 124.13 415.09 124.13 421.01 92.85 525.16 92.85"/><polygon class="cls-3" points="525.16 38.69 519.24 69.98 415.09 69.98 421.01 38.69 525.16 38.69"/></g></g></svg>